<?xml version="1.0" standalone="no"?>
<!DOCTYPE svg PUBLIC "-//W3C//DTD SVG 20010904//EN"
 "http://www.w3.org/TR/2001/REC-SVG-20010904/DTD/svg10.dtd">
<svg version="1.0" xmlns="http://www.w3.org/2000/svg"
 width="700.000000pt" height="700.000000pt" viewBox="0 0 700.000000 700.000000"
 preserveAspectRatio="xMidYMid meet">
<metadata>
Created by potrace 1.14, written by Peter Selinger 2001-2017
</metadata>
<g transform="translate(0.000000,700.000000) scale(0.100000,-0.100000)"
fill="#000000" stroke="none">
<path d="M3367 6994 c-1 -1 -53 -5 -116 -8 -63 -4 -124 -8 -135 -11 -12 -2
-43 -7 -71 -10 -48 -5 -65 -7 -145 -21 -19 -3 -46 -8 -60 -10 -14 -2 -36 -7
-50 -10 -14 -3 -36 -8 -50 -10 -14 -3 -43 -10 -65 -16 -22 -5 -48 -12 -58 -14
-10 -1 -57 -15 -105 -29 -260 -78 -506 -182 -737 -313 -74 -41 -294 -180 -305
-192 -3 -3 -39 -30 -80 -61 -338 -251 -659 -606 -882 -974 -153 -252 -306
-600 -374 -855 -9 -30 -17 -62 -19 -70 -8 -26 -27 -104 -31 -125 -39 -194 -47
-242 -60 -350 -26 -230 -26 -667 1 -826 2 -13 6 -46 9 -74 9 -78 23 -156 51
-285 62 -286 208 -671 351 -920 20 -36 45 -81 56 -100 11 -19 29 -47 39 -62
11 -14 19 -31 19 -37 0 -6 3 -11 8 -11 4 0 20 -21 37 -48 136 -219 443 -560
664 -738 13 -10 28 -24 35 -29 35 -32 187 -142 286 -208 209 -137 501 -285
695 -352 28 -9 57 -20 65 -25 84 -42 520 -145 705 -166 28 -3 61 -8 75 -10
130 -22 614 -22 750 0 14 2 51 7 84 11 67 8 82 10 191 31 44 8 91 17 105 20
74 13 331 89 440 130 69 25 140 51 158 57 17 6 32 14 32 19 0 4 7 8 15 8 20 0
248 114 361 181 74 43 180 113 318 209 29 20 213 170 256 209 374 338 666 745
878 1221 84 191 182 514 221 735 6 33 13 69 15 81 2 12 7 45 11 74 4 29 8 60
10 69 26 136 26 703 1 838 -2 10 -7 41 -11 68 -10 76 -12 85 -23 150 -19 105
-22 118 -57 250 -63 242 -136 437 -245 656 -72 147 -178 332 -192 337 -4 2 -8
8 -8 13 0 22 -157 236 -278 379 -86 103 -357 365 -467 453 -409 327 -874 556
-1378 677 -136 33 -141 34 -282 55 -138 20 -166 23 -278 31 -92 6 -375 12
-380 8z"/>
</g>
</svg>
